<svg width="640" height="576" viewBox="0 0 640 576" fill="none" xmlns="http://www.w3.org/2000/svg">
<g filter="url(#filter0_f_56_275)">
<path d="M-3.88205 -553.593H651.157V439.65H-3.88205V-553.593Z" fill="#0040B2"/>
<path d="M357.16 -123.901C289.873 18.2152 215.477 124.057 162.226 -8.66361C108.976 -141.384 120.356 -364.183 187.643 -506.3C254.931 -648.416 352.646 -656.034 405.897 -523.313C459.146 -390.593 424.449 -266.018 357.16 -123.901Z" fill="#082D71"/>
<path d="M195.071 -38.2764C127.783 103.84 30.0682 111.457 -23.1818 -21.2636C-76.4317 -153.984 -65.0525 -376.782 2.2352 -518.899C69.5227 -661.016 167.238 -668.633 220.488 -535.913C273.738 -403.193 262.358 -180.393 195.071 -38.2764Z" fill="#082D71"/>
<path d="M565.568 121.322C565.568 297.127 503.453 439.65 426.827 439.65C350.205 439.65 288.088 297.127 288.088 121.322C288.088 -54.4826 350.205 -197.002 426.827 -197.002C503.453 -197.002 565.568 -54.4826 565.568 121.322Z" fill="#0D1626"/>
<path d="M827.061 297.061C827.061 472.866 764.946 615.388 688.32 615.388C611.694 615.388 549.579 472.866 549.579 297.061C549.579 121.256 611.694 -21.2637 688.32 -21.2637C764.946 -21.2637 827.061 121.256 827.061 297.061Z" fill="#061733"/>
<path d="M697.409 164.667C697.409 373.134 627.909 542.131 542.179 542.131C456.449 542.131 386.949 373.134 386.949 164.667C386.949 -43.8011 456.449 -212.799 542.179 -212.799C627.909 -212.799 697.409 -43.8011 697.409 164.667Z" fill="#0556E4"/>
<path d="M565.486 343.107C565.486 551.572 495.986 720.569 410.257 720.569C324.524 720.569 255.025 551.572 255.025 343.107C255.025 134.637 324.524 -34.3613 410.257 -34.3613C495.986 -34.3613 565.486 134.637 565.486 343.107Z" fill="#0D1626"/>
<path d="M433.809 350.152C432.164 554.095 336.658 715.432 220.488 710.496C104.318 705.569 11.4767 536.243 13.1212 332.3C14.7656 128.359 110.273 -32.9731 226.443 -28.0418C342.613 -23.1113 435.453 146.215 433.809 350.152Z" fill="#0D1626"/>
<path d="M585.764 -372.839C584.12 -168.897 380.423 144.688 264.255 139.756C148.085 134.826 55.2442 -34.5005 56.8886 -238.442C58.5327 -442.384 154.04 -603.713 270.21 -598.782C386.379 -593.851 587.409 -576.78 585.764 -372.839Z" fill="#0D1626"/>
<path d="M585.764 -372.839C584.12 -168.897 380.423 144.688 264.255 139.756C148.085 134.826 55.2442 -34.5005 56.8886 -238.442C58.5327 -442.384 154.04 -603.713 270.21 -598.782C386.379 -593.851 587.409 -576.78 585.764 -372.839Z" fill="#0D1626"/>
<path d="M338.31 -137.586C271.023 4.53092 173.308 12.1485 120.058 -120.572C66.8075 -253.292 78.1871 -476.092 145.475 -618.209C212.762 -760.326 310.477 -767.942 363.727 -635.222C416.979 -502.502 405.598 -279.703 338.31 -137.586Z" fill="#082D71"/>
<path d="M338.31 -137.586C271.023 4.53092 173.308 12.1485 120.058 -120.572C66.8075 -253.292 78.1871 -476.092 145.475 -618.209C212.762 -760.326 310.477 -767.942 363.727 -635.222C416.979 -502.502 405.598 -279.703 338.31 -137.586Z" fill="#010815"/>
<path d="M167.212 79.3738C99.9242 221.491 2.20932 229.107 -51.0406 96.3874C-104.291 -36.3334 -92.9114 -259.133 -25.6237 -401.249C41.6638 -543.366 139.379 -550.983 192.629 -418.263C245.879 -285.543 234.499 -62.7431 167.212 79.3738Z" fill="#005BFE"/>
<path d="M141.795 -77.6315C74.5072 64.4854 -23.2077 72.1022 -76.4576 -60.6178C-129.708 -193.339 -118.328 -416.138 -51.0406 -558.255C16.2468 -700.371 113.962 -707.989 167.212 -575.268C220.462 -442.548 209.082 -219.748 141.795 -77.6315Z" fill="#082D71"/>
</g>
<g filter="url(#filter1_f_56_275)">
<path d="M96.7727 328.643C116.074 327.417 131.317 258.838 130.82 175.467C130.322 92.0956 114.272 25.5039 94.9713 26.7299C75.6701 27.9559 60.4267 96.5352 60.9241 179.906C61.4216 263.277 77.4715 329.869 96.7727 328.643Z" fill="#208905" fill-opacity="0.66"/>
</g>
<g filter="url(#filter2_f_56_275)">
<path d="M-10.6799 570.481C4.31668 569.529 16.1599 516.149 15.7727 451.254C15.3855 386.36 2.9145 334.525 -12.0821 335.477C-27.0787 336.43 -38.9219 389.81 -38.5347 454.704C-38.1475 519.598 -25.6765 571.434 -10.6799 570.481Z" fill="#6FFF00"/>
</g>
<g filter="url(#filter3_f_56_275)">
</g>
<g filter="url(#filter4_f_56_275)">
</g>
<g filter="url(#filter5_f_56_275)">
<path d="M360.38 107.613C362.91 139.709 393.178 162.217 427.986 157.886C462.793 153.556 488.96 124.026 486.43 91.9298C483.9 59.8339 453.632 37.3257 418.824 41.6565C384.017 45.9872 357.85 75.5169 360.38 107.613Z" fill="#2D0440"/>
</g>
<g filter="url(#filter6_f_56_275)">
<path d="M331.671 250.072C342.808 274.042 378.33 274.043 411.01 250.074C443.691 226.105 461.156 187.242 450.019 163.272C438.882 139.302 403.36 139.301 370.679 163.27C337.998 187.239 320.534 226.102 331.671 250.072Z" fill="#9A1BEE"/>
</g>
<defs>
<filter id="filter0_f_56_275" x="-811.7" y="-1448.7" width="2340.46" height="2870.97" filterUnits="userSpaceOnUse" color-interpolation-filters="sRGB">
<feFlood flood-opacity="0" result="BackgroundImageFix"/>
<feBlend mode="normal" in="SourceGraphic" in2="BackgroundImageFix" result="shape"/>
<feGaussianBlur stdDeviation="350.85" result="effect1_foregroundBlur_56_275"/>
</filter>
<filter id="filter1_f_56_275" x="-339.088" y="-373.287" width="869.919" height="1101.95" filterUnits="userSpaceOnUse" color-interpolation-filters="sRGB">
<feFlood flood-opacity="0" result="BackgroundImageFix"/>
<feBlend mode="normal" in="SourceGraphic" in2="BackgroundImageFix" result="shape"/>
<feGaussianBlur stdDeviation="200" result="effect1_foregroundBlur_56_275"/>
</filter>
<filter id="filter2_f_56_275" x="-438.544" y="-64.5356" width="854.326" height="1035.03" filterUnits="userSpaceOnUse" color-interpolation-filters="sRGB">
<feFlood flood-opacity="0" result="BackgroundImageFix"/>
<feBlend mode="normal" in="SourceGraphic" in2="BackgroundImageFix" result="shape"/>
<feGaussianBlur stdDeviation="200" result="effect1_foregroundBlur_56_275"/>
</filter>
<filter id="filter3_f_56_275" x="219.33" y="-586.468" width="725.188" height="716.097" filterUnits="userSpaceOnUse" color-interpolation-filters="sRGB">
<feFlood flood-opacity="0" result="BackgroundImageFix"/>
<feBlend mode="normal" in="SourceGraphic" in2="BackgroundImageFix" result="shape"/>
<feGaussianBlur stdDeviation="149.7" result="effect1_foregroundBlur_56_275"/>
</filter>
<filter id="filter4_f_56_275" x="327.29" y="-442.496" width="482.666" height="480.356" filterUnits="userSpaceOnUse" color-interpolation-filters="sRGB">
<feFlood flood-opacity="0" result="BackgroundImageFix"/>
<feBlend mode="normal" in="SourceGraphic" in2="BackgroundImageFix" result="shape"/>
<feGaussianBlur stdDeviation="89.4" result="effect1_foregroundBlur_56_275"/>
</filter>
<filter id="filter5_f_56_275" x="60.811" y="-258.277" width="725.188" height="716.097" filterUnits="userSpaceOnUse" color-interpolation-filters="sRGB">
<feFlood flood-opacity="0" result="BackgroundImageFix"/>
<feBlend mode="normal" in="SourceGraphic" in2="BackgroundImageFix" result="shape"/>
<feGaussianBlur stdDeviation="149.7" result="effect1_foregroundBlur_56_275"/>
</filter>
<filter id="filter6_f_56_275" x="46.412" y="-136.606" width="688.866" height="686.556" filterUnits="userSpaceOnUse" color-interpolation-filters="sRGB">
<feFlood flood-opacity="0" result="BackgroundImageFix"/>
<feBlend mode="normal" in="SourceGraphic" in2="BackgroundImageFix" result="shape"/>
<feGaussianBlur stdDeviation="140.95" result="effect1_foregroundBlur_56_275"/>
</filter>
</defs>
</svg>
