<svg preserveAspectRatio="xMidYMid meet" data-bbox="378.373 250.18 1775.948 524.22" viewBox="378.373 250.18 1775.948 524.22" xmlns="http://www.w3.org/2000/svg" data-type="color" role="presentation" aria-hidden="true" aria-label="">
    <g>
        <path d="M1848.85 462.94c-8.07 10.08-23.26 22.09-49.83 22.09-44.08 0-58.35-35.86-58.35-53.23 0-9.27 2.75-55.49 57.07-55.49 20.11 0 35.17 7.7 44.78 22.88l.97 1.53-17.42 11.56-.97-1.77c-3.88-7.07-11.88-15.28-27.92-14.31-14.14.87-23.9 10.94-25.48 26.3-1.02 9.83 3.09 20.23 11.26 28.55 8.41 8.56 19.52 13.15 29.76 12.27 6.17-.53 12.52-2.67 18.89-6.36.61-.37 5.36-3.5 6.93-4.71l10.31 10.69z" fill="#0040b2" data-color="1"></path>
        <path d="M2095.98 376.3c-13.47 0-25.33 3.11-35.28 9.24-9.33-6.13-20.7-9.24-33.83-9.24-7.57 0-14.74 1.01-21.33 3.01a14.801 14.801 0 0 0-8.95-3.01h-15.84v108.74h30.68V398.2c.62-.09 1.2-.16 1.76-.2 9.68-.83 20 3.13 28.31 10.85 8.3 7.72 12.99 17.71 12.86 27.43l.1 48.73h30.76v-55.49c0-5.87-2.23-18.45-10.36-30.11 2.53-.73 5.02-1.21 7.44-1.41 9.69-.82 20 3.13 28.31 10.85 8.3 7.72 12.99 17.71 12.86 27.43l.1 48.73h30.75v-55.49c0-17.36-14.26-53.22-58.34-53.22z" fill="#0040b2" data-color="1"></path>
        <path d="M1910.72 485.07c18.64 0 33.03-5.27 42.77-15.68 14.57-15.56 13.35-36.77 13.29-37.55 0-.53-.62-53.18-55.46-55.48-1.1-.08-27.01-1.89-44.67 14.45-10.36 9.59-15.62 23.39-15.62 41.04.01.53.94 53.22 59.69 53.22zm-3.3-88.81c13.83 0 23.4 5 28.44 14.88 4.1 8.02 4.1 16.9 4.1 20.71 0 5.01-1.44 30-29.79 30-26.46 0-27.59-28.82-27.63-30.11-.76-12.51 1.84-21.96 7.73-28.1 6.94-7.22 16.32-7.38 17.07-7.38h.08z" fill="#0040b2" data-color="1"></path>
        <path d="M1057.74 485.9c26.57 0 41.76-12.01 49.83-22.09l.93-1.16-8.98-11.15-1.38.82c-.27.16-27.33 16.03-47.21 8.46-8-3.04-13.85-9.56-17.41-19.38l62.57-9.1c4.13-.59 7.77-2.97 9.98-6.51 2.25-3.6 2.79-7.98 1.48-12.04-4.42-13.66-16.92-36.57-51.1-36.57-54.31 0-57.07 46.22-57.07 55.49.02 17.37 14.28 53.23 58.36 53.23zm26.72-69.78a3.88 3.88 0 0 1-2.83 2.04l-51.52 7.92c-.9-7.32.85-14.52 4.8-19.57 4.43-5.66 11.49-8.83 20.97-9.41 16.77-1.03 24.84 7.93 28.62 15.62a3.71 3.71 0 0 1-.04 3.4z" fill="#0040b2" data-color="1"></path>
        <path d="M1311.86 485.9c7.57 0 14.74-1.01 21.33-3.01 2.57 1.95 5.71 3.01 8.95 3.01h15.84V377.17h-30.68V464c-.63.09-1.2.16-1.76.2-9.69.83-20-3.13-28.31-10.85-8.3-7.72-12.99-17.71-12.86-27.43l-.1-48.73h-30.76v55.49c.01 17.36 14.27 53.22 58.35 53.22z" fill="#0040b2" data-color="1"></path>
        <path d="M1483.77 463.82c-8.07 10.08-23.26 22.09-49.83 22.09-44.08 0-58.35-35.86-58.35-53.23 0-9.27 2.75-55.49 57.07-55.49 20.11 0 35.17 7.7 44.78 22.88l.97 1.53-17.42 11.56-.97-1.77c-3.88-7.07-11.88-15.29-27.92-14.31-14.14.87-23.9 10.94-25.48 26.3-1.02 9.83 3.09 20.23 11.26 28.55 8.41 8.56 19.53 13.15 29.76 12.27 6.17-.53 12.52-2.67 18.89-6.36.59-.35 5.35-3.49 6.92-4.7l10.32 10.68z" fill="#0040b2" data-color="1"></path>
        <path d="M1177.74 485.9c9.76 0 18.74-1.64 26.71-4.89 2.8 3.09 6.81 4.89 10.99 4.89h15.84V340.03h-30.68v41.92c-7.03-3.16-15.14-4.76-24.14-4.76-54.31 0-57.07 46.22-57.07 55.49.01 17.36 14.27 53.22 58.35 53.22zm22.87-23.64c-3.12 1.04-6.2 1.69-9.18 1.95-10.22.89-21.34-3.71-29.75-12.26-8.18-8.32-12.29-18.73-11.27-28.57 1.58-15.35 11.35-25.42 25.49-26.29.89-.05 1.76-.08 2.62-.08 9.33 0 16.75 3.24 22.09 9.65v55.6z" fill="#0040b2" data-color="1"></path>
        <path d="M1574.5 485.91h15.82V427.7c0-9.24-2.27-18.08-6.55-25.56-6.54-11.38-20.37-24.96-49.18-24.96-12.19 0-22.67 2.91-31.15 8.65l-1.39.94 9.81 18.17 1.75-1.49c5.57-4.76 12.82-6.9 21.56-6.37 10.57.64 18.68 6.28 22.84 15.85 1.1 2.56 1.65 5.46 1.65 8.62v1.87c-3.7-1.24-7.63-2.12-11.71-2.63-25.52-3.17-39.06 3.39-45.92 9.45-6.15 5.43-9.68 12.82-9.68 20.27 0 14.36 4.37 33.65 42.13 35.37 1.04.05 2.08.07 3.11.07 9.05 0 17.6-1.84 25.46-5.47 2.8 3.43 6.97 5.43 11.45 5.43zm-14.84-47.94v23.8c-4.09 1.52-8.23 2.42-11.26 2.43h-.31c-16.2 0-24.51-4.11-24.7-12.22-.09-3.62 1.54-7.4 4.45-10.36 4.05-4.13 10.26-6.39 17.51-6.39h.19c4.8.03 9.87 1.02 14.12 2.74z" fill="#0040b2" data-color="1"></path>
        <path d="m1712.04 401.61-17.42 11.56-.97-1.77c-3.9-7.07-11.89-15.29-27.93-14.31-14.14.87-25.6 11.12-25.6 26.55v62.31h-30.69V377.2h30.69v4.62c7.01-2.89 15.62-4.64 26.18-4.64 20.1 0 35.17 7.71 44.77 22.9l.97 1.53z" fill="#0040b2" data-color="1"></path>
        <path d="M1098.14 650.94c-.27.16-27.33 16.03-47.21 8.46-8-3.04-13.85-9.56-17.41-19.38l62.57-9.1c4.13-.59 7.77-2.97 9.98-6.51a14.32 14.32 0 0 0 1.48-12.03c-4.41-13.66-16.92-36.57-51.09-36.57-54.31 0-57.07 46.22-57.07 55.49 0 17.37 14.26 53.23 58.35 53.23 26.57 0 41.76-12.01 49.83-22.09l.93-1.16-8.98-11.15-1.38.81zm-13.68-36.21a3.855 3.855 0 0 1-2.83 2.04l-51.51 7.92c-.9-7.32.85-14.52 4.8-19.57 4.44-5.66 11.49-8.82 20.97-9.41.9-.06 1.77-.08 2.62-.08 15.02 0 22.42 8.42 26.01 15.7.52 1.08.5 2.33-.06 3.4z" fill="#ffbc00" data-color="2"></path>
        <path d="M1519.04 650.93c-.27.16-27.34 16.03-47.21 8.46-8-3.04-13.85-9.56-17.42-19.38l62.57-9.1c4.13-.59 7.77-2.97 9.98-6.51a14.32 14.32 0 0 0 1.48-12.03c-4.42-13.66-16.92-36.57-51.1-36.57-54.31 0-57.06 46.22-57.06 55.49 0 17.37 14.26 53.23 58.35 53.23 26.57 0 41.76-12.01 49.83-22.09l.93-1.16-8.98-11.15-1.37.81zm-63.23-45.83c4.44-5.66 11.49-8.82 20.97-9.41.9-.06 1.77-.08 2.62-.08 15.02 0 22.42 8.42 26.01 15.7.53 1.09.51 2.33-.05 3.41a3.862 3.862 0 0 1-2.83 2.04l-51.51 7.92c-.91-7.32.84-14.53 4.79-19.58z" fill="#ffbc00" data-color="2"></path>
        <path d="M1778.77 662.43c-8.07 10.08-23.26 22.09-49.83 22.09-44.08 0-58.34-35.86-58.34-53.23 0-9.27 2.75-55.49 57.06-55.49 20.11 0 35.17 7.7 44.78 22.88l.97 1.53-17.42 11.56-.97-1.77c-3.88-7.07-11.88-15.3-27.92-14.31-14.14.87-23.9 10.94-25.48 26.3-1.02 9.83 3.09 20.23 11.26 28.55 8.41 8.56 19.53 13.16 29.76 12.27 6.17-.53 12.52-2.66 18.89-6.36.61-.37 5.36-3.5 6.93-4.71l10.31 10.69z" fill="#ffbc00" data-color="2"></path>
        <path d="M1370.69 580.58c-7.03-3.16-15.14-4.76-24.14-4.76-54.31 0-57.06 46.22-57.06 55.49 0 17.37 14.26 53.23 58.35 53.23 9.76 0 18.74-1.64 26.71-4.89 2.8 3.08 6.81 4.89 10.99 4.89h15.84V538.66h-30.68v41.92zm0 80.31c-3.12 1.04-6.2 1.69-9.18 1.95-10.23.88-21.34-3.71-29.75-12.26-8.18-8.32-12.29-18.73-11.27-28.57 1.58-15.35 11.35-25.42 25.49-26.29.89-.06 1.76-.08 2.62-.08 9.33 0 16.75 3.24 22.09 9.65v55.6z" fill="#ffbc00" data-color="2"></path>
        <path d="M1593.62 575.79c-7.57 0-14.74 1.01-21.33 3.01a14.801 14.801 0 0 0-8.95-3.01h-15.84v108.74h30.68v-86.84c.62-.09 1.2-.16 1.76-.2 9.68-.83 20 3.13 28.31 10.85 8.3 7.72 12.99 17.71 12.87 27.43l.1 48.73h30.76v-55.49c-.01-17.36-14.28-53.22-58.36-53.22z" fill="#ffbc00" data-color="2"></path>
        <path d="M1883.22 575.77c-12.19 0-22.67 2.91-31.15 8.65l-1.39.94 9.81 18.17 1.75-1.49c5.57-4.76 12.81-6.9 21.56-6.37 10.57.64 18.68 6.28 22.84 15.85 1.1 2.56 1.65 5.46 1.65 8.62v1.87c-3.7-1.24-7.62-2.12-11.71-2.63-25.52-3.17-39.06 3.39-45.92 9.45-6.15 5.43-9.68 12.82-9.68 20.27 0 14.36 4.37 33.65 42.13 35.37 1.04.05 2.07.07 3.1.07 9.05 0 17.6-1.84 25.47-5.47 2.8 3.41 6.98 5.41 11.45 5.41h15.82v-58.2c0-9.24-2.27-18.08-6.55-25.56-6.54-11.38-20.38-24.95-49.18-24.95zm25.07 60.78v23.8c-4.09 1.52-8.23 2.42-11.26 2.43h-.31c-16.2 0-24.51-4.11-24.7-12.22-.09-3.62 1.54-7.4 4.45-10.36 4.09-4.16 10.41-6.41 17.71-6.39 4.79.03 9.86 1.02 14.11 2.74z" fill="#ffbc00" data-color="2"></path>
        <path d="M1207.59 576.88c-22.74 49.94-31.4 69.12-34.68 76.67-4.96-13.01-20.28-53.56-28.95-76.55l-.45-1.2-32.45.03 45.51 108.71h32.3l45.68-108.74h-26.47l-.49 1.08z" fill="#ffbc00" data-color="2"></path>
        <path fill="#ffbc00" d="M1274.01 575.79v108.74h-30.68V575.79h30.68z" data-color="2"></path>
        <path d="M1258.67 525.18c-10.85 0-19.68 8.03-19.68 17.9s8.83 17.9 19.68 17.9 19.68-8.03 19.68-17.9-8.83-17.9-19.68-17.9z" fill="#ffbc00" data-color="2"></path>
        <path fill="#ffbc00" d="M1822.53 575.79v108.74h-30.68V575.79h30.68z" data-color="2"></path>
        <path d="M1807.19 525.18c-10.85 0-19.68 8.03-19.68 17.9s8.83 17.9 19.68 17.9 19.68-8.03 19.68-17.9-8.83-17.9-19.68-17.9z" fill="#ffbc00" data-color="2"></path>
        <path d="M2019.17 619c-4.16-.96-8.48-1.36-12.65-1.75-11.7-1.08-18.3-2.09-17.83-10.25.28-4.88 5.9-9.46 13.97-11.42 10.3-2.49 25.15-.61 33.11 12.9l.99 1.69 17.18-11.4-.66-1.44c-.43-.94-10.91-23.11-44.9-23.11-18.03 0-33.13 5.5-42.52 15.5-6.03 6.42-9.09 14.13-8.62 21.71 1.06 17.02 12.52 26.38 38.32 31.27 2.64.5 5.03.93 7.19 1.32 12.22 2.21 15.75 2.99 15.92 6.09.08 1.41-.16 4.16-2.64 6.73-2.71 2.81-8.84 6.12-22.64 5.81-12.4-.26-22.38-6.49-28.57-11.67l-1.45-1.21-9.12 11.31.79 1.14c.63.91 15.72 22.19 49.91 22.19 17.04 0 30.84-5.19 38.85-14.62 5.56-6.54 8.01-14.78 6.73-22.61-2.92-17.96-18.67-25.24-31.36-28.18z" fill="#ffbc00" data-color="2"></path>
        <path fill="#ffbc00" d="M1436.23 567.94h18.59l23.47-17.19 23.46 17.19h18.59l-32.77-35.31h-18.56l-32.78 35.31z" data-color="2"></path>
        <path d="M715.68 704.97c8.38 30.87 43.46 45.86 71.49 30.45 102.23-56.18 156.72-176.82 124.8-294.37C880.04 323.52 772 247.02 655.4 250.28c-31.97.89-54.64 31.57-46.26 62.44l106.54 392.25z" fill="#0040b2" data-color="1"></path>
        <path d="M690.31 711.86c8.38 30.87-14.29 61.54-46.26 62.44-116.6 3.26-224.64-73.23-256.57-190.78-31.93-117.55 22.57-238.18 124.8-294.36 28.03-15.41 63.11-.42 71.49 30.45l106.54 392.25z" fill="#0040b2" data-color="1"></path>
        <path d="M844.27 569.47c-6.4-23.56-28.84-38.46-52.36-36.14L760.96 419.4c21.46-9.9 33.28-34.1 26.88-57.67-7.14-26.28-34.23-41.79-60.5-34.65-26.28 7.14-41.79 34.23-34.65 60.5.66 2.44 1.5 4.8 2.49 7.04L540.96 496.75c-13.09-7.41-28.98-9.86-44.64-5.61-31.53 8.57-50.15 41.07-41.59 72.6 8.57 31.53 41.07 50.15 72.6 41.59 15.66-4.25 28.13-14.41 35.67-27.42l184.7 10.07c.28 2.44.75 4.89 1.41 7.34 7.14 26.28 34.23 41.79 60.5 34.65 26.28-7.14 41.8-34.22 34.66-60.5zm-275.35-36.74a58.982 58.982 0 0 0-14.23-25.29l149.6-99.07c10.28 10.95 25.29 16.88 40.76 15.35L776 537.65c-14.12 6.51-24.06 19.21-27.39 33.86l-179.17-9.77c2.18-9.26 2.15-19.18-.52-29.01z" fill="#ffbc00" data-color="2"></path>
    </g>
</svg>