<svg width="229" height="68" viewBox="0 0 229 68" fill="none" xmlns="http://www.w3.org/2000/svg">
<g clip-path="url(#clip0_78_64)">
<path d="M189.611 27.3136C188.571 28.6077 186.612 30.1495 183.186 30.1495C177.502 30.1495 175.662 25.5459 175.662 23.3159C175.662 22.1259 176.016 16.1923 183.021 16.1923C185.614 16.1923 187.556 17.1808 188.795 19.1296L188.92 19.326L186.674 20.81L186.549 20.5828C186.048 19.6752 185.017 18.6212 182.949 18.7457C181.125 18.8574 179.867 20.1502 179.663 22.122C179.531 23.384 180.061 24.7191 181.115 25.7872C182.199 26.8861 183.632 27.4754 184.952 27.3624C185.748 27.2944 186.567 27.0196 187.388 26.5459C187.467 26.4984 188.079 26.0966 188.282 25.9413L189.611 27.3136Z" fill="white"/>
<path d="M221.477 16.191C219.74 16.191 218.211 16.5903 216.928 17.3772C215.725 16.5903 214.259 16.191 212.566 16.191C211.59 16.191 210.665 16.3207 209.816 16.5774C209.484 16.3266 209.078 16.1909 208.662 16.191H206.619V30.1508H210.575V19.0025C210.655 18.9909 210.73 18.9819 210.802 18.9768C212.05 18.8702 213.381 19.3786 214.452 20.3697C215.523 21.3608 216.127 22.6433 216.111 23.8911L216.124 30.1469H220.09V23.0233C220.09 22.2697 219.802 20.6547 218.754 19.1578C219.08 19.0641 219.401 19.0025 219.713 18.9768C220.963 18.8715 222.292 19.3786 223.364 20.3697C224.434 21.3608 225.039 22.6433 225.022 23.8911L225.035 30.1469H229V23.0233C229 20.7946 227.161 16.191 221.477 16.191Z" fill="white"/>
<path d="M197.589 30.1546C199.993 30.1546 201.848 29.4781 203.104 28.1417C204.983 26.1441 204.825 23.4212 204.818 23.3211C204.818 23.2531 204.738 16.494 197.666 16.1987C197.525 16.1885 194.184 15.9561 191.906 18.0538C190.571 19.2849 189.892 21.0565 189.892 23.3224C189.894 23.3904 190.013 30.1546 197.589 30.1546ZM197.163 18.7534C198.947 18.7534 200.181 19.3953 200.831 20.6637C201.359 21.6933 201.359 22.8333 201.359 23.3224C201.359 23.9656 201.174 27.1737 197.518 27.1737C194.106 27.1737 193.96 23.4739 193.955 23.3083C193.857 21.7023 194.193 20.4891 194.952 19.7009C195.847 18.774 197.056 18.7534 197.153 18.7534H197.163Z" fill="white"/>
<path d="M87.6013 30.2612C91.0274 30.2612 92.986 28.7194 94.0266 27.4253L94.1466 27.2764L92.9886 25.845L92.8107 25.9503C92.7759 25.9708 89.2866 28.0082 86.7232 27.0364C85.6916 26.6461 84.9373 25.8091 84.4782 24.5484L92.5463 23.3802C93.0789 23.3044 93.5482 22.9989 93.8332 22.5444C94.1233 22.0823 94.193 21.52 94.0241 20.9988C93.4541 19.2451 91.8423 16.304 87.4349 16.304C80.4319 16.304 80.076 22.2376 80.076 23.4277C80.0786 25.6576 81.9174 30.2612 87.6013 30.2612ZM91.0467 21.303C91.0106 21.372 90.9589 21.4316 90.8955 21.4771C90.8321 21.5226 90.7589 21.5527 90.6818 21.5649L84.0385 22.5817C83.9225 21.6419 84.1481 20.7176 84.6575 20.0693C85.2287 19.3427 86.1391 18.9358 87.3615 18.8613C89.5239 18.7291 90.5645 19.8793 91.0519 20.8665C91.086 20.9344 91.1034 21.0095 91.1025 21.0854C91.1016 21.1613 91.0825 21.236 91.0467 21.303Z" fill="white"/>
<path d="M120.369 30.2612C121.345 30.2612 122.269 30.1315 123.119 29.8748C123.451 30.1251 123.856 30.2612 124.273 30.2612H126.316V16.3027H122.36V27.4497C122.279 27.4613 122.205 27.4703 122.133 27.4754C120.883 27.5819 119.554 27.0736 118.482 26.0825C117.412 25.0914 116.807 23.8089 116.824 22.5611L116.811 16.3053H112.845V23.4289C112.846 25.6576 114.685 30.2612 120.369 30.2612Z" fill="white"/>
<path d="M142.536 27.4266C141.495 28.7207 139.537 30.2625 136.11 30.2625C130.427 30.2625 128.586 25.6589 128.586 23.429C128.586 22.2389 128.941 16.3053 135.945 16.3053C138.538 16.3053 140.48 17.2938 141.72 19.2426L141.845 19.439L139.598 20.923L139.473 20.6958C138.973 19.7882 137.941 18.7329 135.873 18.8587C134.05 18.9704 132.791 20.2632 132.588 22.235C132.456 23.497 132.986 24.8321 134.04 25.9002C135.124 26.9991 136.558 27.5884 137.877 27.4754C138.673 27.4074 139.491 27.1326 140.313 26.6589C140.389 26.614 141.003 26.2109 141.205 26.0556L142.536 27.4266Z" fill="white"/>
<path d="M103.075 30.2612C104.333 30.2612 105.491 30.0507 106.519 29.6334C106.88 30.0301 107.397 30.2612 107.936 30.2612H109.978V11.5348H106.022V16.9164C105.116 16.5107 104.07 16.3053 102.91 16.3053C95.9066 16.3053 95.5508 22.2389 95.5508 23.429C95.552 25.6576 97.3908 30.2612 103.075 30.2612ZM106.024 27.2264C105.621 27.3599 105.224 27.4433 104.84 27.4767C103.522 27.5909 102.088 27.0004 101.004 25.9028C99.9491 24.8347 99.4191 23.4983 99.5506 22.235C99.7544 20.2645 101.014 18.9717 102.837 18.86C102.952 18.8536 103.064 18.8497 103.175 18.8497C104.378 18.8497 105.335 19.2657 106.024 20.0886V27.2264Z" fill="white"/>
<path d="M154.235 30.2625H156.275V22.7896C156.275 21.6034 155.982 20.4686 155.43 19.5083C154.587 18.0474 152.804 16.304 149.089 16.304C147.517 16.304 146.166 16.6776 145.072 17.4145L144.893 17.5352L146.158 19.8678L146.384 19.6765C147.102 19.0654 148.037 18.7907 149.164 18.8587C150.527 18.9409 151.572 19.6649 152.109 20.8935C152.251 21.2222 152.321 21.5944 152.321 22.0001V22.2402C151.844 22.081 151.338 21.968 150.812 21.9026C147.521 21.4956 145.775 22.3378 144.89 23.1157C144.097 23.8128 143.642 24.7615 143.642 25.7179C143.642 27.5614 144.206 30.0378 149.075 30.2586C149.209 30.2651 149.343 30.2676 149.476 30.2676C150.643 30.2676 151.745 30.0314 152.759 29.5654C153.12 30.0057 153.657 30.2625 154.235 30.2625ZM152.321 24.1081V27.1635C151.794 27.3586 151.26 27.4741 150.87 27.4754H150.83C148.741 27.4754 147.669 26.9478 147.645 25.9066C147.633 25.4419 147.843 24.9567 148.218 24.5767C148.741 24.0465 149.541 23.7563 150.476 23.7563H150.501C151.12 23.7602 151.773 23.8873 152.321 24.1081Z" fill="white"/>
<path d="M171.97 19.4403L169.724 20.9243L169.599 20.6971C169.096 19.7895 168.066 18.7342 165.997 18.86C164.174 18.9717 162.696 20.2876 162.696 22.2684V30.2676H158.739V16.3066H162.696V16.8997C163.6 16.5287 164.711 16.304 166.072 16.304C168.664 16.304 170.607 17.2938 171.845 19.2439L171.97 19.4403Z" fill="white"/>
<path d="M92.8107 51.4486C92.7759 51.4691 89.2866 53.5065 86.7232 52.5347C85.6916 52.1444 84.9373 51.3074 84.4782 50.0467L92.5463 48.8785C93.0789 48.8027 93.5482 48.4972 93.8332 48.0427C93.9765 47.8149 94.0679 47.5585 94.1008 47.2916C94.1338 47.0248 94.1076 46.754 94.0241 46.4984C93.4554 44.7447 91.8423 41.8036 87.4362 41.8036C80.4332 41.8036 80.0773 47.7372 80.0773 48.9272C80.0773 51.1572 81.9161 55.7608 87.6013 55.7608C91.0274 55.7608 92.986 54.219 94.0266 52.9249L94.1465 52.776L92.9886 51.3446L92.8107 51.4486ZM91.0467 46.8C91.0108 46.8692 90.9591 46.9289 90.8957 46.9744C90.8323 47.0199 90.759 47.0499 90.6818 47.0619L84.0398 48.0787C83.9238 47.139 84.1494 46.2146 84.6588 45.5663C85.2313 44.8397 86.1403 44.434 87.3627 44.3583C87.4788 44.3506 87.591 44.348 87.7006 44.348C89.6373 44.348 90.5915 45.429 91.0544 46.3636C91.1215 46.5022 91.1189 46.6627 91.0467 46.8Z" fill="#FFBC00"/>
<path d="M147.084 51.4473C147.049 51.4678 143.558 53.5052 140.996 52.5334C139.965 52.1431 139.21 51.3061 138.75 50.0454L146.818 48.8772C147.351 48.8014 147.82 48.4959 148.105 48.0415C148.248 47.8136 148.34 47.5572 148.373 47.2904C148.406 47.0235 148.379 46.7527 148.296 46.4971C147.726 44.7434 146.114 41.8023 141.707 41.8023C134.704 41.8023 134.349 47.7359 134.349 48.926C134.349 51.1559 136.188 55.7595 141.873 55.7595C145.299 55.7595 147.258 54.2177 148.298 52.9236L148.418 52.7747L147.26 51.3433L147.084 51.4473ZM138.93 45.5638C139.503 44.8371 140.412 44.4315 141.634 44.3557C141.751 44.348 141.863 44.3455 141.972 44.3455C143.909 44.3455 144.863 45.4264 145.326 46.361C145.395 46.5009 145.392 46.6601 145.32 46.7988C145.284 46.8678 145.232 46.9276 145.169 46.9731C145.105 47.0186 145.032 47.0486 144.955 47.0606L138.313 48.0774C138.195 47.1377 138.421 46.2121 138.93 45.5638Z" fill="#FFBC00"/>
<path d="M180.575 52.9236C179.534 54.2177 177.575 55.7595 174.149 55.7595C168.465 55.7595 166.627 51.1559 166.627 48.926C166.627 47.7359 166.981 41.8023 173.984 41.8023C176.577 41.8023 178.519 42.7908 179.758 44.7396L179.884 44.936L177.637 46.42L177.512 46.1928C177.012 45.2852 175.98 44.2286 173.912 44.3557C172.089 44.4674 170.83 45.7602 170.627 47.7321C170.495 48.994 171.025 50.3291 172.078 51.3972C173.163 52.4961 174.597 53.0867 175.916 52.9724C176.711 52.9044 177.53 52.6309 178.352 52.1559C178.43 52.1084 179.043 51.7066 179.245 51.5513L180.575 52.9236Z" fill="#FFBC00"/>
<path d="M127.955 42.4159C127.048 42.0103 126.002 41.8049 124.842 41.8049C117.839 41.8049 117.484 47.7385 117.484 48.9285C117.484 51.1584 119.323 55.7621 125.008 55.7621C126.267 55.7621 127.425 55.5515 128.452 55.1343C128.813 55.5297 129.331 55.7621 129.87 55.7621H131.912V37.0344H127.956L127.955 42.4159ZM127.955 52.7259C127.552 52.8594 127.155 52.9429 126.771 52.9763C125.452 53.0892 124.019 52.5 122.935 51.4024C121.88 50.3343 121.35 48.9979 121.482 47.7346C121.685 45.764 122.945 44.4713 124.768 44.3596C124.883 44.3519 124.995 44.3493 125.106 44.3493C126.309 44.3493 127.266 44.7652 127.955 45.5881V52.7259Z" fill="#FFBC00"/>
<path d="M156.7 41.801C155.724 41.801 154.8 41.9307 153.95 42.1874C153.618 41.9366 153.213 41.8009 152.796 41.801H150.753V55.7608H154.71V44.6125C154.789 44.6009 154.864 44.592 154.936 44.5868C156.185 44.4803 157.515 44.9886 158.587 45.9797C159.657 46.9708 160.262 48.2533 160.246 49.5011L160.259 55.7569H164.226V48.6333C164.224 46.4046 162.384 41.801 156.7 41.801Z" fill="#FFBC00"/>
<path d="M194.043 41.7985C192.471 41.7985 191.12 42.172 190.026 42.9089L189.847 43.0296L191.112 45.3622L191.338 45.1709C192.056 44.5599 192.989 44.2851 194.118 44.3532C195.481 44.4353 196.526 45.1594 197.063 46.388C197.205 46.7166 197.276 47.0889 197.276 47.4946V47.7346C196.799 47.5754 196.293 47.4625 195.766 47.397C192.475 46.99 190.729 47.8322 189.845 48.6102C189.051 49.3073 188.596 50.256 188.596 51.2124C188.596 53.0559 189.16 55.5323 194.029 55.7531C194.163 55.7595 194.296 55.7621 194.429 55.7621C195.595 55.7621 196.698 55.5259 197.713 55.0598C198.074 55.4976 198.613 55.7544 199.189 55.7544H201.229V48.2828C201.229 47.0966 200.936 45.9617 200.384 45.0015C199.541 43.5405 197.757 41.7985 194.043 41.7985ZM197.276 49.6012V52.6566C196.748 52.8517 196.214 52.9673 195.824 52.9686H195.784C193.695 52.9686 192.623 52.4409 192.599 51.3998C192.587 50.9351 192.797 50.4498 193.173 50.0698C193.7 49.5358 194.515 49.2469 195.456 49.2495C196.074 49.2533 196.728 49.3804 197.276 49.6012Z" fill="#FFBC00"/>
<path d="M106.924 41.941C103.991 48.3521 102.875 50.8144 102.452 51.7836C101.812 50.1135 99.8369 44.9078 98.7189 41.9564L98.6609 41.8023L94.4766 41.8062L100.345 55.7621H104.51L110.4 41.8023H106.987L106.924 41.941Z" fill="#FFBC00"/>
<path d="M115.488 41.801V55.7608H111.532V41.801H115.488Z" fill="#FFBC00"/>
<path d="M113.51 35.3038C112.111 35.3038 110.973 36.3347 110.973 37.6018C110.973 38.8689 112.111 39.8997 113.51 39.8997C114.909 39.8997 116.048 38.8689 116.048 37.6018C116.048 36.3347 114.909 35.3038 113.51 35.3038Z" fill="#FFBC00"/>
<path d="M186.217 41.801V55.7608H182.261V41.801H186.217Z" fill="#FFBC00"/>
<path d="M184.239 35.3038C182.84 35.3038 181.702 36.3347 181.702 37.6018C181.702 38.8689 182.84 39.8997 184.239 39.8997C185.638 39.8997 186.777 38.8689 186.777 37.6018C186.777 36.3347 185.638 35.3038 184.239 35.3038Z" fill="#FFBC00"/>
<path d="M211.573 47.3482C211.037 47.225 210.48 47.1736 209.942 47.1236C208.433 46.9849 207.582 46.8553 207.643 45.8077C207.679 45.1812 208.404 44.5933 209.444 44.3416C210.772 44.022 212.687 44.2633 213.714 45.9977L213.841 46.2147L216.056 44.7512L215.971 44.5663C215.916 44.4456 214.565 41.5995 210.182 41.5995C207.857 41.5995 205.91 42.3056 204.699 43.5893C203.921 44.4135 203.527 45.4033 203.587 46.3764C203.724 48.5614 205.202 49.763 208.529 50.3908C208.869 50.455 209.177 50.5102 209.456 50.5602C211.031 50.8439 211.487 50.9441 211.509 51.342C211.519 51.5231 211.488 51.8761 211.168 52.206C210.819 52.5668 210.028 52.9917 208.249 52.9519C206.65 52.9185 205.363 52.1187 204.565 51.4537L204.378 51.2984L203.202 52.7503L203.304 52.8967C203.385 53.0135 205.331 55.7454 209.739 55.7454C211.937 55.7454 213.716 55.0791 214.749 53.8685C215.466 53.0289 215.782 51.9711 215.617 50.9659C215.24 48.6602 213.209 47.7257 211.573 47.3482Z" fill="#FFBC00"/>
<path d="M136.406 40.7933H138.803L141.829 38.5865L144.854 40.7933H147.251L143.026 36.2603H140.633L136.406 40.7933Z" fill="#FFBC00"/>
<path d="M43.4943 58.3848C44.5748 62.3478 49.0982 64.2722 52.7125 62.2939C65.8946 55.0817 72.9208 39.5942 68.8049 24.5047C64.6877 9.41526 50.7565 -0.405608 35.7214 0.0129025C31.5991 0.127158 28.6759 4.06578 29.7564 8.02878L43.4943 58.3848Z" fill="white"/>
<path d="M40.2229 59.2693C41.3035 63.2323 38.3803 67.1697 34.2579 67.2852C19.2229 67.7037 5.29164 57.8841 1.17442 42.7934C-2.94281 27.7026 4.08471 12.2164 17.2668 5.00292C20.8811 3.02462 25.4045 4.949 26.4851 8.91201L40.2229 59.2693Z" fill="white"/>
<path d="M60.0753 40.9897C59.25 37.9651 56.3565 36.0523 53.3237 36.3502L49.3329 21.7228C52.1 20.4519 53.6242 17.3452 52.7989 14.3193C51.8783 10.9456 48.3851 8.95442 44.9977 9.87103C41.6091 10.7876 39.6091 14.2654 40.5298 17.6379C40.6149 17.9511 40.7232 18.2541 40.8508 18.5416L20.9649 31.6541C19.277 30.7028 17.2281 30.3883 15.2088 30.9339C11.1431 32.0341 8.74219 36.2064 9.84596 40.2541C10.951 44.3018 15.1417 46.6922 19.2074 45.5933C21.2267 45.0477 22.8346 43.7434 23.8069 42.0732L47.6231 43.366C47.6592 43.6792 47.7198 43.9937 47.8049 44.3083C48.7255 47.682 52.2187 49.6732 55.6061 48.7565C58.9947 47.8399 60.996 44.3635 60.0753 40.9897ZM24.5702 36.2731C24.2397 35.0557 23.609 33.9397 22.7353 33.0265L42.0255 20.3081C43.3511 21.7138 45.2866 22.4751 47.2813 22.2787L51.2722 36.9047C49.4515 37.7405 48.1698 39.3709 47.7404 41.2516L24.6373 39.9974C24.9184 38.8086 24.9145 37.5351 24.5702 36.2731Z" fill="#FFBC00"/>
</g>
<defs>
<clipPath id="clip0_78_64">
<rect width="229" height="68" fill="white"/>
</clipPath>
</defs>
</svg>
